# xmcd
#
# Track frame offsets:
#	150
#	15259
#	29310
#	46096
#	62331
#	81777
#	95934
#	114026
#	138078
#	158917
#
# Disc length: 2349 seconds
# Revision: 2
# Processed by: cddbd v1.5.2PL0 Copyright (c) Steve Scherf et al.
# Submitted via: dBpowerAMP V12.0
#
DISCID=69092b0a
DTITLE=Darrell Nulisch - Bluesoul
DYEAR=1996
DGENRE=Blues
TTITLE0=Crime of Passion
TTITLE1=Love Song
TTITLE2=You Were Right
TTITLE3=I've Been Searching
TTITLE4=Again And Again
TTITLE5=Worried
TTITLE6=I Don't Need Nothing
TTITLE7=Going Back to Texas
TTITLE8=Heartful of Blues
TTITLE9=What Have I Done Wrong
EXTD=
EXTT0=
EXTT1=
EXTT2=
EXTT3=
EXTT4=
EXTT5=
EXTT6=
EXTT7=
EXTT8=
EXTT9=
PLAYORDER=
